<svg width="322" height="35" viewBox="0 0 322 35" fill="none" xmlns="http://www.w3.org/2000/svg">
<g clip-path="url(#clip0_46_664)">
<path d="M15.8586 6.51296C14.3563 5.04103 12.6055 3.8845 10.595 3.03786C8.59006 2.19122 6.41007 1.76514 4.06065 1.76514H0.0169429L0 4.40466V34.3746H4.0663C7.06519 34.3746 9.84948 33.6497 12.4135 32.1944C14.9719 30.739 16.9994 28.758 18.4847 26.2458C19.97 23.7335 20.7155 21.011 20.7155 18.0671C20.7155 15.7651 20.2807 13.6292 19.4166 11.6647C18.5525 9.70031 17.3665 7.97937 15.8642 6.50743M16.1579 24.9232C14.9154 27.0315 13.2268 28.6972 11.092 29.909C8.9515 31.1264 6.61338 31.7296 4.0663 31.7296H2.69392V4.39913H4.0663C5.95826 4.39913 7.7768 4.76988 9.52192 5.50031C11.267 6.23628 12.7467 7.1936 13.9553 8.37779C15.1639 9.56198 16.1409 11.0062 16.8921 12.7161C17.6432 14.426 18.016 16.2078 18.016 18.0616C18.016 20.524 17.3947 22.8094 16.1579 24.9177" fill="#FFE8CF"/>
<path d="M42.9673 25.8862C42.9673 27.6127 42.363 29.0183 41.1544 30.1084C39.9458 31.1985 38.5565 31.7408 36.9921 31.7408C35.2639 31.7408 33.8351 31.1432 32.7112 29.9424C31.5873 28.7416 31.0225 27.3914 31.0225 25.8918V1.75977H28.3286V25.8862C28.3286 27.3914 28.7183 28.7969 29.5033 30.1084C30.2883 31.4198 31.3445 32.4602 32.6829 33.2293C34.0214 33.9985 35.4559 34.3803 36.9921 34.3803C38.5282 34.3803 39.9627 33.9985 41.3012 33.2293C42.6397 32.4602 43.7015 31.4254 44.4809 30.1084C45.2659 28.7969 45.6556 27.3914 45.6556 25.8862V1.75977H42.9616V25.8862H42.9673Z" fill="#FFE8CF"/>
<path d="M60.4071 1.76514H57.7131V34.3746H69.5562V31.7406H60.4071V1.76514Z" fill="#FFE8CF"/>
<path d="M98.6248 30.7778C96.5521 31.8348 94.31 32.3604 91.8928 32.3604C89.2836 32.3604 86.8494 31.7241 84.6017 30.4403C82.3483 29.162 80.5693 27.4189 79.2647 25.211C77.9601 23.0031 77.3049 20.6071 77.3049 18.0174C77.3049 15.4276 77.9544 13.1091 79.2647 10.8735C80.5693 8.63791 82.3483 6.88376 84.6017 5.6221C86.8551 4.36044 89.2836 3.72961 91.8928 3.72961C93.525 3.72961 95.0668 3.96202 96.5182 4.42685C97.9696 4.89167 99.3307 5.57783 100.607 6.49088C101.878 7.40392 102.923 8.41657 103.742 9.53436L105.899 8.04582C104.335 5.87112 102.324 4.16677 99.8785 2.93831C97.4331 1.70985 94.7731 1.09009 91.8984 1.09009C89.5829 1.09009 87.369 1.51617 85.2681 2.36282C83.1615 3.20946 81.3035 4.42685 79.6882 6.00946C78.073 7.59206 76.8249 9.42369 75.9439 11.4988C75.0628 13.5794 74.6223 15.7541 74.6223 18.0229C74.6223 21.1272 75.396 23.9715 76.9491 26.5612C78.4966 29.151 80.5862 31.2039 83.2124 32.7257C85.8385 34.2419 88.7358 35.0055 91.9041 35.0055C94.7731 35.0055 97.4444 34.3747 99.9068 33.113C102.369 31.8514 104.385 30.1636 105.95 28.0553L103.747 26.5225C102.409 28.3154 100.703 29.7375 98.6304 30.7889" fill="#FFE8CF"/>
<path d="M113.297 12.1242V14.7582V34.3748H128.568V31.7408H115.991V14.7582H123.966V12.1242H115.991V4.39929H128.568V1.75977H113.297V12.1242Z" fill="#FFE8CF"/>
<path d="M197.492 16.0086L193.674 15.0513C192.466 14.7635 191.455 14.1106 190.642 13.0869C189.828 12.0631 189.416 10.8955 189.416 9.58409C189.416 8.07895 189.981 6.76195 191.105 5.62756C192.229 4.49318 193.595 3.92322 195.194 3.92322C197.447 3.92322 199.107 4.85286 200.186 6.70662L202.536 5.41175C201.784 4.1667 200.751 3.16511 199.429 2.41255C198.108 1.65998 196.696 1.28369 195.194 1.28369C192.844 1.28369 190.845 2.0916 189.196 3.70741C187.547 5.32322 186.722 7.28211 186.722 9.58409C186.722 11.471 187.304 13.1588 188.462 14.6418C189.619 16.1303 191.127 17.1098 192.991 17.5912L196.809 18.5485C198.339 18.9303 199.599 19.7216 200.576 20.9224C201.553 22.1232 202.044 23.5675 202.044 25.2608C202.044 27.1809 201.366 28.8189 200.011 30.1746C198.656 31.5359 196.967 32.211 194.945 32.211C193.313 32.211 191.845 31.7185 190.54 30.7224C189.235 29.7319 188.388 28.4204 187.999 26.788L185.451 27.5074C186.005 29.6489 187.163 31.4086 188.925 32.7809C190.687 34.1588 192.692 34.845 194.945 34.845C197.622 34.845 199.921 33.9153 201.847 32.0616C203.772 30.2078 204.732 27.939 204.732 25.2497C204.732 23.075 204.055 21.1272 202.699 19.4007C201.344 17.6742 199.61 16.5398 197.487 15.9975" fill="#FFE8CF"/>
<path d="M224.46 2.24108C223.121 1.47191 221.687 1.09009 220.151 1.09009C218.614 1.09009 217.18 1.47191 215.841 2.24108C214.503 3.01025 213.441 4.05056 212.656 5.35649C211.871 6.66795 211.481 8.07349 211.481 9.57862V34.3747H214.175V25.1668H226.12V34.3747H228.814V9.57862C228.814 8.07902 228.419 6.66795 227.639 5.35649C226.854 4.04503 225.798 3.00471 224.46 2.24108ZM226.12 22.5272H214.175V9.57862C214.175 8.04582 214.729 6.68455 215.841 5.50036C216.948 4.31617 218.389 3.72408 220.151 3.72408C221.161 3.72408 222.127 3.96202 223.037 4.44345C223.951 4.92487 224.691 5.61104 225.262 6.50748C225.832 7.40392 226.12 8.42764 226.12 9.57862V22.5272Z" fill="#FFE8CF"/>
<path d="M243.029 1.76514H240.335V34.3746H252.184V31.7406H243.029V1.76514Z" fill="#FFE8CF"/>
<path d="M274.424 2.24108C273.086 1.47191 271.651 1.09009 270.115 1.09009C268.579 1.09009 267.144 1.47191 265.806 2.24108C264.467 3.01025 263.406 4.05056 262.626 5.35649C261.841 6.66795 261.452 8.07349 261.452 9.57862V34.3747H264.146V25.1668H276.09V34.3747H278.784V9.57862C278.784 8.07902 278.389 6.66795 277.61 5.35649C276.825 4.04503 275.763 3.00471 274.424 2.24108ZM276.09 22.5272H264.146V9.57862C264.146 8.04582 264.699 6.68455 265.812 5.50036C266.919 4.31617 268.359 3.72408 270.121 3.72408C271.132 3.72408 272.092 3.96202 273.007 4.44345C273.922 4.92487 274.661 5.61104 275.232 6.50748C275.802 7.40392 276.09 8.42764 276.09 9.57862V22.5272Z" fill="#FFE8CF"/>
<path d="M319.673 9.50669C318.12 6.93357 316.025 4.88614 313.382 3.36993C310.739 1.84819 307.836 1.09009 304.667 1.09009C302.352 1.09009 300.138 1.51617 298.037 2.36282C295.931 3.20946 294.073 4.42685 292.457 6.00946C290.842 7.59206 289.594 9.42369 288.713 11.4988C287.832 13.5794 287.391 15.7541 287.391 18.0229C287.391 21.1217 288.165 23.9715 289.718 26.5612C291.266 29.151 293.355 31.2039 295.987 32.7257C298.613 34.2419 301.51 35.0055 304.679 35.0055C307.847 35.0055 310.75 34.2474 313.393 32.7257C316.036 31.2095 318.131 29.151 319.685 26.5612C321.232 23.9715 322.006 21.1272 322.006 18.0229C322.006 14.9185 321.232 12.0853 319.685 9.50669M317.358 25.2166C316.053 27.4245 314.274 29.1676 312.021 30.4458C309.767 31.7241 307.322 32.366 304.679 32.366C302.036 32.366 299.635 31.7296 297.382 30.4458C295.129 29.1676 293.35 27.4245 292.045 25.2166C290.74 23.0087 290.085 20.6126 290.085 18.0229C290.085 15.4332 290.74 13.1146 292.045 10.879C293.35 8.64345 295.129 6.8893 297.382 5.62764C299.635 4.36598 302.064 3.73515 304.679 3.73515C307.294 3.73515 309.767 4.36598 312.021 5.62764C314.274 6.8893 316.053 8.64345 317.358 10.879C318.662 13.1146 319.317 15.4996 319.317 18.0229C319.317 20.5462 318.662 23.0087 317.358 25.2166Z" fill="#FFE8CF"/>
<path d="M176.562 3.36991C174.879 1.15094 171.361 0.597578 166.396 1.77623C164.425 2.22446 162.336 2.94382 160.19 3.70193C159.772 3.06003 159.111 2.46793 158.235 1.93118C155.818 0.509041 151.114 -0.326532 147.968 0.105088C143.275 0.719318 139.677 3.01576 139.226 5.68849C139.062 6.65687 139.293 7.47031 139.915 8.10114C141.247 9.45133 144.071 9.63394 146.274 9.35726C149.532 8.93118 154.322 7.19363 157.818 5.9209C158.439 5.69402 159.02 5.48374 159.551 5.2956C159.726 5.2458 159.862 5.12959 159.941 4.96912C160.02 4.80865 160.026 4.61497 159.952 4.43789C159.975 4.49876 160.009 4.54857 160.031 4.60944C160.387 5.64975 160.127 6.76754 159.331 7.59758C159.207 7.75805 159.173 8.00706 159.342 8.1288C159.433 8.21181 159.54 8.26161 159.681 8.25054C159.789 8.23948 159.885 8.19521 159.935 8.12327C160.754 7.17703 161.048 6.00944 160.766 4.90825C162.618 4.26082 167.181 2.82208 169.486 2.4956C171.219 2.24659 172.513 2.19679 173.563 2.35173C174.777 2.52327 175.681 3.00469 176.314 3.81813C177.144 5.03552 177.387 6.66793 177.042 8.6711C176.686 10.8513 175.681 13.3747 174.049 16.1636C171.976 19.6608 169.152 22.8426 166.091 25.1169C164.487 26.2901 163.03 27.1146 161.647 27.6403C160.229 28.2102 158.862 28.4592 157.682 28.332C156.332 28.2268 155.186 27.4909 154.452 26.2513C157.541 23.1802 160.274 20.1256 161.308 18.9525C162.381 17.7462 166.504 13.2142 168.695 10.8956L168.881 10.6964H166.385L166.351 10.7296C164.482 12.5225 162.878 14.0996 161.325 15.6213C160.799 16.1359 160.286 16.645 159.766 17.1541L159.619 17.298C157.953 18.9581 156.637 20.275 155.44 20.275C155.152 20.275 155.039 19.9762 155.022 19.9375C154.937 19.4505 155.253 18.7422 155.954 17.8347C157.292 16.0861 161.827 11.0837 161.991 10.9288L162.2 10.7296H159.506L159.472 10.7628C157.433 12.694 155.722 14.6584 154.389 16.5952C153.683 17.6466 153.525 19.0023 153.994 19.8932C154.288 20.4355 154.813 20.7454 155.44 20.7454C156.739 20.7454 157.998 19.6166 161.669 16.0142C159.721 18.2332 156.456 21.8853 153.859 24.7628C153.7 24.143 153.633 23.4845 153.65 22.8316C153.96 22.7818 154.305 22.6268 154.61 22.4774C154.903 22.3059 155.135 22.0292 155.186 21.7913C155.208 21.664 155.186 21.5533 155.118 21.4648C155.078 21.4094 154.999 21.3375 154.841 21.3209C154.542 21.2822 154.124 21.4426 153.819 21.7027C153.441 21.9849 153.249 22.1952 153.085 22.494C152.949 22.5604 152.814 22.6379 152.678 22.7098C152.526 22.7928 152.379 22.8703 152.226 22.9478C143.715 27.5185 139.909 30.966 140.908 33.1905C141.225 34.0426 142.078 34.347 142.778 34.347C144.41 34.347 146.878 33.0245 149.916 30.5233C151.159 29.4553 152.452 28.2711 153.644 27.1035C153.847 26.9043 153.904 26.5944 153.785 26.3288C153.678 26.1241 153.474 25.9802 153.232 25.947C153.006 25.9193 152.785 25.9913 152.633 26.1573C152.362 26.4782 152.096 26.766 151.837 27.0482C151.673 27.2252 151.52 27.3913 151.385 27.5517C148.211 31.0766 144.128 34.3913 142.151 33.7936C141.722 33.6719 141.485 33.4505 141.422 33.1296C141.168 31.8513 143.744 29.328 144.427 28.7968C147.262 26.4837 149.95 24.6521 152.418 23.3517C152.661 23.23 152.904 23.1138 153.164 22.981C153.147 24.381 153.52 25.7146 154.231 26.7549C154.598 27.3138 155.067 27.7731 155.671 28.166C156.287 28.5312 156.942 28.7359 157.648 28.7968C157.84 28.8245 158.021 28.8245 158.235 28.8245C160.602 28.8245 163.42 27.6624 166.385 25.4711C169.536 23.1193 172.405 19.8932 174.461 16.3849C176.133 13.4909 177.161 10.9122 177.511 8.72643C177.878 6.45766 177.562 4.65371 176.568 3.35331M159.116 4.07268C158.439 4.32169 157.62 4.6371 156.711 4.98572C153.277 6.30272 148.578 8.10667 145.308 8.79837C143.399 9.20786 141.434 8.84264 140.406 7.89086C139.802 7.32643 139.553 6.58493 139.7 5.74936C140.242 2.61734 145.393 0.824456 148.03 0.564377C151.424 0.182559 155.508 0.935128 157.964 2.38493C159.043 3.00469 159.636 3.62999 159.947 4.41576C159.794 4.12248 159.433 3.96754 159.116 4.07268Z" fill="#FFE8CF"/>
</g>
<defs>
<clipPath id="clip0_46_664">
<rect width="322" height="35" fill="white"/>
</clipPath>
</defs>
</svg>
