<svg width="529" height="55" viewBox="0 0 529 55" fill="none" xmlns="http://www.w3.org/2000/svg">
<g clip-path="url(#clip0_167_3743)">
<path d="M26.0534 10.2348C23.5853 7.92175 20.7091 6.10436 17.406 4.77393C14.1122 3.44349 10.5308 2.77393 6.67107 2.77393H0.0278348L0 6.92175V54.0174H6.68035C11.6071 54.0174 16.1813 52.8783 20.3936 50.5913C24.5967 48.3044 27.9276 45.1913 30.3677 41.2435C32.8079 37.2957 34.0327 33.0174 34.0327 28.3913C34.0327 24.7739 33.3182 21.4174 31.8987 18.3304C30.4791 15.2435 28.5306 12.5391 26.0626 10.2261M26.5451 39.1652C24.5039 42.4783 21.7297 45.0957 18.2225 47C14.706 48.9131 10.8648 49.8609 6.68035 49.8609H4.42573V6.91306H6.68035C9.78856 6.91306 12.7762 7.49566 15.6431 8.64349C18.5101 9.80001 20.941 11.3044 22.9266 13.1652C24.9121 15.0261 26.5173 17.2957 27.7513 19.9826C28.9853 22.6696 29.5976 25.4696 29.5976 28.3826C29.5976 32.2522 28.577 35.8435 26.5451 39.1565" fill="#FFE8CF"/>
<path d="M70.589 40.6782C70.589 43.3912 69.5963 45.5999 67.6107 47.313C65.6252 49.026 63.3427 49.8782 60.7726 49.8782C57.9335 49.8782 55.5861 48.9391 53.7397 47.0521C51.8933 45.1651 50.9655 43.0434 50.9655 40.6869V2.76514H46.5398V40.6782C46.5398 43.0434 47.18 45.2521 48.4697 47.313C49.7594 49.3738 51.4944 51.0086 53.6933 52.2173C55.8923 53.426 58.249 54.026 60.7726 54.026C63.2963 54.026 65.653 53.426 67.852 52.2173C70.0509 51.0086 71.7952 49.3825 73.0756 47.313C74.3653 45.2521 75.0055 43.0434 75.0055 40.6782V2.76514H70.5798V40.6782H70.589Z" fill="#FFE8CF"/>
<path d="M99.2402 2.77393H94.8145V54.0174H114.271V49.8783H99.2402V2.77393Z" fill="#FFE8CF"/>
<path d="M162.026 48.3653C158.621 50.0262 154.938 50.8523 150.967 50.8523C146.68 50.8523 142.681 49.8523 138.988 47.8349C135.286 45.8262 132.364 43.087 130.22 39.6175C128.077 36.1479 127.001 32.3827 127.001 28.3131C127.001 24.2436 128.068 20.6001 130.22 17.087C132.364 13.574 135.286 10.8175 138.988 8.83487C142.69 6.85226 146.68 5.86096 150.967 5.86096C153.648 5.86096 156.181 6.22618 158.566 6.95661C160.95 7.68705 163.186 8.76531 165.283 10.2001C167.371 11.6349 169.087 13.2262 170.432 14.9827L173.977 12.6436C171.407 9.22618 168.104 6.54792 164.086 4.61748C160.069 2.68705 155.699 1.71313 150.976 1.71313C147.172 1.71313 143.535 2.3827 140.083 3.71313C136.622 5.04357 133.57 6.95661 130.916 9.44357C128.263 11.9305 126.212 14.8088 124.765 18.0697C123.317 21.3392 122.594 24.7566 122.594 28.3218C122.594 33.2001 123.865 37.6697 126.416 41.7392C128.959 45.8088 132.392 49.0349 136.706 51.4262C141.02 53.8088 145.78 55.0088 150.985 55.0088C155.699 55.0088 160.087 54.0175 164.133 52.0349C168.178 50.0523 171.49 47.4001 174.06 44.087L170.442 41.6784C168.243 44.4957 165.441 46.7305 162.036 48.3827" fill="#FFE8CF"/>
<path d="M186.131 19.0521V23.1912V54.0173H211.22V49.8782H190.557V23.1912H203.658V19.0521H190.557V6.91296H211.22V2.76514H186.131V19.0521Z" fill="#FFE8CF"/>
<path d="M324.451 25.1565L318.179 23.6521C316.194 23.1999 314.533 22.1739 313.197 20.5652C311.861 18.9565 311.184 17.1217 311.184 15.0608C311.184 12.6956 312.111 10.626 313.958 8.84342C315.804 7.06081 318.049 6.16516 320.675 6.16516C324.377 6.16516 327.105 7.62603 328.877 10.5391L332.737 8.50429C331.503 6.54777 329.805 4.97386 327.634 3.79125C325.463 2.60864 323.143 2.01733 320.675 2.01733C316.815 2.01733 313.531 3.2869 310.822 5.82603C308.112 8.36516 306.758 11.4434 306.758 15.0608C306.758 18.026 307.713 20.6782 309.615 23.0086C311.518 25.3478 313.995 26.8869 317.057 27.6434L323.329 29.1478C325.843 29.7478 327.912 30.9912 329.517 32.8782C331.122 34.7652 331.93 37.0347 331.93 39.6956C331.93 42.713 330.816 45.2869 328.59 47.4173C326.363 49.5565 323.589 50.6173 320.267 50.6173C317.586 50.6173 315.173 49.8434 313.03 48.2782C310.887 46.7217 309.495 44.6608 308.855 42.0956L304.67 43.226C305.579 46.5912 307.481 49.3565 310.376 51.513C313.271 53.6782 316.565 54.7565 320.267 54.7565C324.665 54.7565 328.441 53.2956 331.605 50.3825C334.769 47.4695 336.346 43.9043 336.346 39.6782C336.346 36.2608 335.233 33.1999 333.006 30.4869C330.779 27.7739 327.931 25.9912 324.442 25.1391" fill="#FFE8CF"/>
<path d="M368.755 3.52183C366.556 2.31313 364.199 1.71313 361.676 1.71313C359.152 1.71313 356.795 2.31313 354.596 3.52183C352.397 4.73053 350.653 6.36531 349.363 8.41748C348.074 10.4784 347.434 12.687 347.434 15.0523V54.0175H351.859V39.5479H371.483V54.0175H375.909V15.0523C375.909 12.6957 375.259 10.4784 373.979 8.41748C372.689 6.35661 370.954 4.72183 368.755 3.52183ZM371.483 35.4001H351.859V15.0523C351.859 12.6436 352.769 10.5044 354.596 8.64357C356.415 6.7827 358.781 5.85227 361.676 5.85227C363.337 5.85227 364.923 6.22618 366.417 6.9827C367.92 7.73922 369.135 8.81748 370.073 10.2262C371.01 11.6349 371.483 13.2436 371.483 15.0523V35.4001Z" fill="#FFE8CF"/>
<path d="M399.262 2.77393H394.836V54.0174H414.302V49.8783H399.262V2.77393Z" fill="#FFE8CF"/>
<path d="M450.84 3.52183C448.641 2.31313 446.284 1.71313 443.761 1.71313C441.237 1.71313 438.88 2.31313 436.681 3.52183C434.482 4.73053 432.738 6.36531 431.458 8.41748C430.168 10.4784 429.528 12.687 429.528 15.0523V54.0175H433.954V39.5479H453.577V54.0175H458.003V15.0523C458.003 12.6957 457.353 10.4784 456.073 8.41748C454.783 6.35661 453.039 4.72183 450.84 3.52183ZM453.577 35.4001H433.954V15.0523C433.954 12.6436 434.863 10.5044 436.691 8.64357C438.509 6.7827 440.875 5.85227 443.77 5.85227C445.431 5.85227 447.008 6.22618 448.511 6.9827C450.014 7.73922 451.23 8.81748 452.167 10.2262C453.104 11.6349 453.577 13.2436 453.577 15.0523V35.4001Z" fill="#FFE8CF"/>
<path d="M525.177 14.9392C522.626 10.8957 519.184 7.67835 514.841 5.29574C510.499 2.90444 505.73 1.71313 500.525 1.71313C496.721 1.71313 493.084 2.3827 489.632 3.71313C486.172 5.04357 483.119 6.95661 480.465 9.44357C477.812 11.9305 475.761 14.8088 474.314 18.0697C472.867 21.3392 472.143 24.7566 472.143 28.3218C472.143 33.1914 473.414 37.6697 475.965 41.7392C478.508 45.8088 481.941 49.0349 486.264 51.4262C490.579 53.8088 495.338 55.0088 500.544 55.0088C505.749 55.0088 510.518 53.8175 514.86 51.4262C519.202 49.0436 522.644 45.8088 525.196 41.7392C527.738 37.6697 529.009 33.2001 529.009 28.3218C529.009 23.4436 527.738 18.9914 525.196 14.9392M521.373 39.6262C519.23 43.0957 516.307 45.8349 512.605 47.8436C508.903 49.8523 504.886 50.861 500.544 50.861C496.201 50.861 492.258 49.861 488.556 47.8436C484.854 45.8349 481.931 43.0957 479.788 39.6262C477.645 36.1566 476.569 32.3914 476.569 28.3218C476.569 24.2523 477.645 20.6088 479.788 17.0957C481.931 13.5827 484.854 10.8262 488.556 8.84357C492.258 6.86096 496.248 5.86966 500.544 5.86966C504.839 5.86966 508.903 6.86096 512.605 8.84357C516.307 10.8262 519.23 13.5827 521.373 17.0957C523.517 20.6088 524.593 24.3566 524.593 28.3218C524.593 32.287 523.517 36.1566 521.373 39.6262Z" fill="#FFE8CF"/>
<path d="M290.066 5.29571C287.301 1.80876 281.521 0.939191 273.365 2.79137C270.127 3.49571 266.694 4.62615 263.169 5.81745C262.482 4.80876 261.396 3.87832 259.958 3.03484C255.987 0.800061 248.258 -0.512982 243.09 0.165278C235.38 1.1305 229.47 4.73919 228.728 8.93919C228.459 10.4609 228.839 11.7392 229.86 12.7305C232.049 14.8522 236.688 15.1392 240.307 14.7044C245.661 14.0348 253.529 11.3044 259.272 9.30441C260.292 8.94789 261.248 8.61745 262.12 8.3218C262.408 8.24354 262.631 8.06093 262.76 7.80876C262.89 7.55658 262.9 7.25223 262.779 6.97397C262.816 7.06963 262.872 7.14789 262.909 7.24354C263.493 8.87832 263.067 10.6348 261.758 11.9392C261.554 12.1914 261.499 12.5827 261.777 12.774C261.925 12.9044 262.102 12.9827 262.334 12.9653C262.51 12.9479 262.668 12.8783 262.751 12.7653C264.096 11.2783 264.579 9.44354 264.115 7.7131C267.158 6.69571 274.655 4.43484 278.441 3.9218C281.289 3.5305 283.414 3.45223 285.14 3.69571C287.134 3.96528 288.619 4.7218 289.658 6.00006C291.022 7.9131 291.421 10.4783 290.855 13.6261C290.27 17.0522 288.619 21.0175 285.937 25.4001C282.532 30.8957 277.893 35.8957 272.864 39.4696C270.229 41.3131 267.836 42.6088 265.562 43.4348C263.234 44.3305 260.988 44.7218 259.049 44.5218C256.832 44.3566 254.948 43.2001 253.742 41.2522C258.817 36.4261 263.308 31.6261 265.006 29.7827C266.769 27.887 273.542 20.7653 277.142 17.1218L277.448 16.8088H273.347L273.291 16.8609C270.22 19.6783 267.585 22.1566 265.034 24.5479C264.171 25.3566 263.326 26.1566 262.473 26.9566L262.232 27.1827C259.494 29.7914 257.333 31.8609 255.366 31.8609C254.892 31.8609 254.707 31.3914 254.679 31.3305C254.54 30.5653 255.059 29.4522 256.21 28.0261C258.409 25.2783 265.859 17.4175 266.128 17.174L266.472 16.8609H262.046L261.99 16.9131C258.641 19.9479 255.83 23.0348 253.64 26.0783C252.48 27.7305 252.22 29.8609 252.99 31.2609C253.473 32.1131 254.336 32.6001 255.366 32.6001C257.5 32.6001 259.569 30.8261 265.6 25.1653C262.399 28.6522 257.036 34.3914 252.768 38.9131C252.508 37.9392 252.397 36.9044 252.424 35.8783C252.935 35.8001 253.501 35.5566 254.002 35.3218C254.484 35.0522 254.865 34.6175 254.948 34.2435C254.985 34.0435 254.948 33.8696 254.837 33.7305C254.772 33.6435 254.642 33.5305 254.382 33.5044C253.89 33.4435 253.204 33.6957 252.703 34.1044C252.081 34.5479 251.766 34.8783 251.497 35.3479C251.274 35.4522 251.051 35.574 250.829 35.687C250.578 35.8175 250.337 35.9392 250.086 36.0609C236.104 43.2435 229.85 48.6609 231.493 52.1566C232.012 53.4957 233.413 53.974 234.564 53.974C237.245 53.974 241.3 51.8957 246.291 47.9653C248.333 46.287 250.457 44.4261 252.415 42.5914C252.749 42.2783 252.842 41.7914 252.647 41.374C252.471 41.0522 252.137 40.8261 251.738 40.774C251.367 40.7305 251.005 40.8435 250.754 41.1044C250.309 41.6088 249.873 42.0609 249.446 42.5044C249.177 42.7827 248.926 43.0435 248.704 43.2957C243.489 48.8348 236.781 54.0435 233.534 53.1044C232.829 52.9131 232.439 52.5653 232.337 52.0609C231.919 50.0522 236.15 46.087 237.273 45.2522C241.931 41.6175 246.347 38.7392 250.402 36.6957C250.801 36.5044 251.2 36.3218 251.626 36.1131C251.599 38.3131 252.211 40.4088 253.38 42.0435C253.983 42.9218 254.753 43.6435 255.746 44.2609C256.757 44.8348 257.834 45.1566 258.993 45.2522C259.309 45.2957 259.606 45.2957 259.958 45.2957C263.846 45.2957 268.476 43.4696 273.347 40.0261C278.524 36.3305 283.238 31.2609 286.615 25.7479C289.361 21.2001 291.05 17.1479 291.625 13.7131C292.228 10.1479 291.709 7.3131 290.076 5.26963M261.406 6.40006C260.292 6.79137 258.947 7.28702 257.453 7.83484C251.812 9.90441 244.093 12.7392 238.72 13.8261C235.584 14.4696 232.356 13.8957 230.667 12.4001C229.674 11.5131 229.266 10.3479 229.507 9.03484C230.398 4.1131 238.86 1.29571 243.193 0.887017C248.769 0.287018 255.477 1.46963 259.513 3.74789C261.285 4.7218 262.259 5.70441 262.77 6.93919C262.519 6.47832 261.925 6.23484 261.406 6.40006Z" fill="#FFE8CF"/>
</g>
<defs>
<clipPath id="clip0_167_3743">
<rect width="529" height="55" fill="white"/>
</clipPath>
</defs>
</svg>
