<svg width="326" height="326" viewBox="0 0 326 326" fill="none" xmlns="http://www.w3.org/2000/svg">
<g clip-path="url(#clip0_46_1799)">
<path d="M55.2405 162.563H87.1671L109.143 140.486" stroke="#F5E1C8" stroke-width="1.45055" stroke-linecap="round" stroke-linejoin="round"/>
<path d="M87.1671 162.563L109.143 184.568" stroke="#F5E1C8" stroke-width="1.45055" stroke-linecap="round" stroke-linejoin="round"/>
<path d="M55.3854 162.563H23.4588L1.48291 140.486" stroke="#F5E1C8" stroke-width="1.45055" stroke-linecap="round" stroke-linejoin="round"/>
<path d="M23.4588 162.563L1.48291 184.568" stroke="#F5E1C8" stroke-width="1.45055" stroke-linecap="round" stroke-linejoin="round"/>
<path d="M55.2695 162.447V194.374L77.3469 216.35" stroke="#F5E1C8" stroke-width="1.45055" stroke-linecap="round" stroke-linejoin="round"/>
<path d="M55.2694 194.388L33.2791 216.35" stroke="#F5E1C8" stroke-width="1.45055" stroke-linecap="round" stroke-linejoin="round"/>
<path d="M55.2695 162.607V130.666L77.3469 108.704" stroke="#F5E1C8" stroke-width="1.45055" stroke-linecap="round" stroke-linejoin="round"/>
<path d="M55.2694 130.666L33.2791 108.704" stroke="#F5E1C8" stroke-width="1.45055" stroke-linecap="round" stroke-linejoin="round"/>
<path d="M109.07 108.733H1.41052V216.756H109.07V108.733Z" stroke="#F5E1C8" stroke-width="1.45055" stroke-linecap="round" stroke-linejoin="round"/>
<path d="M2.26636 216.582L109.926 324.401" stroke="#F5E1C8" stroke-width="1.45055" stroke-linecap="round" stroke-linejoin="round"/>
<path d="M2.26636 216.582L109.926 324.401" stroke="#F5E1C8" stroke-width="1.45055" stroke-linecap="round" stroke-linejoin="round"/>
<path d="M109.926 216.582L2.26636 324.401" stroke="#F5E1C8" stroke-width="1.45055" stroke-linecap="round" stroke-linejoin="round"/>
<path d="M109.926 216.582L2.26636 324.401" stroke="#F5E1C8" stroke-width="1.45055" stroke-linecap="round" stroke-linejoin="round"/>
<path d="M75.5046 251.047H36.6733V289.936H75.5046V251.047Z" stroke="#F5E1C8" stroke-width="1.45055" stroke-linecap="round" stroke-linejoin="round"/>
<path d="M94.9274 270.499L56.0961 231.609L17.2649 270.499L56.0961 309.388L94.9274 270.499Z" stroke="#F5E1C8" stroke-width="1.45055" stroke-linecap="round" stroke-linejoin="round"/>
<path d="M56.0962 216.582V324.401" stroke="#F5E1C8" stroke-width="1.45055" stroke-linecap="round" stroke-linejoin="round"/>
<path d="M2.26636 270.499H109.926" stroke="#F5E1C8" stroke-width="1.45055" stroke-linecap="round" stroke-linejoin="round"/>
<path d="M109.912 216.582H2.25183V324.401H109.912V216.582Z" stroke="#F5E1C8" stroke-width="1.45055" stroke-linecap="round" stroke-linejoin="round"/>
<path d="M109.027 0.725342H1.38147V109.052H109.027V0.725342Z" stroke="#F5E1C8" stroke-width="1.45055" stroke-linecap="round" stroke-linejoin="round"/>
<path d="M55.1825 54.5552C48.2924 54.5987 41.4313 57.2967 36.1803 62.6492C31.0453 67.8857 28.4198 74.6888 28.2603 81.5499C42.9833 81.5499 54.9214 69.5104 55.197 54.5552H55.1825Z" stroke="#F5E1C8" stroke-width="1.45055" stroke-linecap="round" stroke-linejoin="round"/>
<path d="M82.1046 27.5604C75.2145 27.6039 68.3534 30.302 63.1024 35.6545C57.9674 40.891 55.3419 47.6941 55.1824 54.5552C69.9055 54.5552 81.8435 42.5156 82.1191 27.5604H82.1046Z" stroke="#F5E1C8" stroke-width="1.45055" stroke-linecap="round" stroke-linejoin="round"/>
<path d="M55.1823 54.5552C62.058 54.5987 68.9336 57.2967 74.1846 62.6492C79.3195 67.8857 81.945 74.6888 82.1046 81.5499C67.3815 81.5499 55.4435 69.5104 55.1678 54.5552H55.1823Z" stroke="#F5E1C8" stroke-width="1.45055" stroke-linecap="round" stroke-linejoin="round"/>
<path d="M28.2457 27.5604C35.1213 27.6039 41.9969 30.302 47.2479 35.6545C52.3829 40.891 55.0084 47.6941 55.1679 54.5552C40.4448 54.5552 28.5068 42.5156 28.2312 27.5604H28.2457Z" stroke="#F5E1C8" stroke-width="1.45055" stroke-linecap="round" stroke-linejoin="round"/>
<path d="M55.292 0.719074L1.56616 54.4449L55.292 108.171L109.018 54.4449L55.292 0.719074Z" stroke="#F5E1C8" stroke-width="1.45055" stroke-linecap="round" stroke-linejoin="round"/>
<path d="M1.38147 0.725342L28.2312 27.575" stroke="#F5E1C8" stroke-width="1.45055" stroke-linecap="round" stroke-linejoin="round"/>
<path d="M82.1046 81.5355L108.954 108.385" stroke="#F5E1C8" stroke-width="1.45055" stroke-linecap="round" stroke-linejoin="round"/>
<path d="M1.33801 108.342L28.1877 81.4919" stroke="#F5E1C8" stroke-width="1.45055" stroke-linecap="round" stroke-linejoin="round"/>
<path d="M82.1481 27.6185L108.998 0.768799" stroke="#F5E1C8" stroke-width="1.45055" stroke-linecap="round" stroke-linejoin="round"/>
<path d="M216.614 323.618L163.263 270.165L109.912 323.618" stroke="#F5E1C8" stroke-width="1.45055" stroke-linecap="round" stroke-linejoin="round"/>
<path d="M216.614 216.77L163.263 270.223L109.912 216.77" stroke="#F5E1C8" stroke-width="1.45055" stroke-linecap="round" stroke-linejoin="round"/>
<path d="M200.774 216.77L163.263 254.34L125.766 216.77" stroke="#F5E1C8" stroke-width="1.45055" stroke-linecap="round" stroke-linejoin="round"/>
<path d="M182.018 216.77L163.263 235.555L144.507 216.77" stroke="#F5E1C8" stroke-width="1.45055" stroke-linecap="round" stroke-linejoin="round"/>
<path d="M125.766 323.618L163.263 286.034L200.774 323.618" stroke="#F5E1C8" stroke-width="1.45055" stroke-linecap="round" stroke-linejoin="round"/>
<path d="M144.507 323.618L163.263 304.819L182.018 323.618" stroke="#F5E1C8" stroke-width="1.45055" stroke-linecap="round" stroke-linejoin="round"/>
<path d="M109.926 232.625L147.437 270.194L109.926 307.763" stroke="#F5E1C8" stroke-width="1.45055" stroke-linecap="round" stroke-linejoin="round"/>
<path d="M109.926 251.409L128.682 270.194L109.926 288.979" stroke="#F5E1C8" stroke-width="1.45055" stroke-linecap="round" stroke-linejoin="round"/>
<path d="M216.6 307.763L179.089 270.194L216.6 232.625" stroke="#F5E1C8" stroke-width="1.45055" stroke-linecap="round" stroke-linejoin="round"/>
<path d="M216.6 288.979L197.844 270.194L216.6 251.409" stroke="#F5E1C8" stroke-width="1.45055" stroke-linecap="round" stroke-linejoin="round"/>
<path d="M216.6 216.857H109.897V324.401H216.6V216.857Z" stroke="#F5E1C8" stroke-width="1.45055" stroke-linecap="round" stroke-linejoin="round"/>
<path d="M216.614 0.768799H108.954V108.733H216.614V0.768799Z" stroke="#F5E1C8" stroke-width="1.45055" stroke-linecap="round" stroke-linejoin="round"/>
<path d="M162.523 54.6422C157.562 49.7394 150.716 46.7367 143.129 46.8093C143.057 46.8093 142.984 46.8093 142.912 46.8093C132.729 46.9978 132.83 62.5477 143.013 62.5623C150.005 62.5623 157.055 59.9222 162.523 54.6277V54.6422Z" stroke="#F5E1C8" stroke-width="1.45055" stroke-linecap="round" stroke-linejoin="round"/>
<path d="M182.99 62.5042C192.999 62.0111 192.549 46.9688 182.526 46.7803C182.265 46.7803 181.989 46.7803 181.714 46.7803C174.302 46.8528 167.542 49.8409 162.523 54.6568C168.122 60.2559 175.593 62.8669 182.99 62.5042Z" stroke="#F5E1C8" stroke-width="1.45055" stroke-linecap="round" stroke-linejoin="round"/>
<path d="M162.523 54.6422C167.412 59.6176 170.4 66.4787 170.327 74.0941C170.327 74.1666 170.327 74.2392 170.327 74.3117C170.139 84.5236 154.632 84.422 154.618 74.2101C154.618 67.1895 157.243 60.1253 162.523 54.6422Z" stroke="#F5E1C8" stroke-width="1.45055" stroke-linecap="round" stroke-linejoin="round"/>
<path d="M154.69 34.1169C155.183 24.0791 170.182 24.5433 170.371 34.5811C170.371 34.8567 170.371 35.1178 170.371 35.3934C170.298 42.8348 167.31 49.6088 162.523 54.6422C156.939 49.0286 154.328 41.5438 154.69 34.1169Z" stroke="#F5E1C8" stroke-width="1.45055" stroke-linecap="round" stroke-linejoin="round"/>
<path d="M162.799 54.7583C155.836 54.8018 148.888 57.5434 143.564 62.9684C143.506 63.0264 143.463 63.07 143.405 63.128C136.341 70.4823 147.379 81.4049 154.589 74.1957C159.549 69.2348 162.668 62.3737 162.799 54.7583Z" stroke="#F5E1C8" stroke-width="1.45055" stroke-linecap="round" stroke-linejoin="round"/>
<path d="M182.802 45.8083C189.532 38.367 178.61 28.0536 171.386 35.0307C171.197 35.2193 170.994 35.4079 170.806 35.5965C165.613 40.9055 162.944 47.8101 162.784 54.7727C170.69 54.7727 177.812 51.3204 182.787 45.8083H182.802Z" stroke="#F5E1C8" stroke-width="1.45055" stroke-linecap="round" stroke-linejoin="round"/>
<path d="M162.799 54.7583C169.761 54.8018 176.71 57.5434 182.033 62.9684C182.091 63.0264 182.135 63.07 182.193 63.128C189.257 70.4823 178.218 81.4049 171.009 74.1957C166.048 69.2348 162.929 62.3737 162.799 54.7583Z" stroke="#F5E1C8" stroke-width="1.45055" stroke-linecap="round" stroke-linejoin="round"/>
<path d="M142.796 45.8083C136.065 38.367 146.988 28.0536 154.212 35.0307C154.4 35.2193 154.603 35.4079 154.792 35.5965C159.985 40.9055 162.654 47.8101 162.813 54.7727C154.908 54.7727 147.786 51.3204 142.81 45.8083H142.796Z" stroke="#F5E1C8" stroke-width="1.45055" stroke-linecap="round" stroke-linejoin="round"/>
<path d="M204.386 54.7583C204.386 31.7235 185.775 13.0549 162.799 13.0549C139.822 13.0549 121.211 31.7235 121.211 54.7583C121.211 77.793 139.822 96.4616 162.799 96.4616C185.775 96.4616 204.386 77.793 204.386 54.7583Z" stroke="#F5E1C8" stroke-width="1.45055" stroke-linecap="round" stroke-linejoin="round"/>
<path d="M216.614 0.768799L192.187 25.2686" stroke="#F5E1C8" stroke-width="1.45055" stroke-linecap="round" stroke-linejoin="round"/>
<path d="M133.425 84.2045L108.998 108.704" stroke="#F5E1C8" stroke-width="1.45055" stroke-linecap="round" stroke-linejoin="round"/>
<path d="M108.998 0.768799L133.425 25.2686" stroke="#F5E1C8" stroke-width="1.45055" stroke-linecap="round" stroke-linejoin="round"/>
<path d="M192.187 84.2045L216.614 108.704" stroke="#F5E1C8" stroke-width="1.45055" stroke-linecap="round" stroke-linejoin="round"/>
<path d="M216.614 109.052H109.897V216.944H216.614V109.052Z" stroke="#F5E1C8" stroke-width="1.45055" stroke-linecap="round" stroke-linejoin="round"/>
<path d="M216.614 162.998C216.614 151.96 207.824 143.01 196.93 142.908V131.217C196.93 129.853 195.842 128.751 194.493 128.751H183.121C182.903 117.843 174.098 109.052 163.248 109.052C152.398 109.052 143.593 117.828 143.376 128.751H132.003C130.654 128.751 129.567 129.853 129.567 131.217V142.908C118.673 143.024 109.883 151.974 109.883 162.998C109.883 174.023 118.673 182.987 129.567 183.103V194.388C129.567 195.752 130.654 196.854 132.003 196.854H143.361C143.361 207.951 152.268 216.959 163.248 216.959C174.229 216.959 183.135 207.965 183.135 196.854H194.493C195.842 196.854 196.93 195.752 196.93 194.388V183.103C207.824 182.987 216.614 174.037 216.614 162.998Z" stroke="#F5E1C8" stroke-width="1.45055" stroke-linecap="round" stroke-linejoin="round"/>
<path d="M248.106 162.592L270.386 185.018L292.667 162.592L270.386 140.152L248.106 162.592Z" stroke="#F5E1C8" stroke-width="1.45055" stroke-linecap="round" stroke-linejoin="round"/>
<path d="M297.845 134.945H242.927V190.225H297.845V134.945Z" stroke="#F5E1C8" stroke-width="1.45055" stroke-linecap="round" stroke-linejoin="round"/>
<path d="M324.26 108.4H216.6V216.756H324.26V108.4Z" stroke="#F5E1C8" stroke-width="1.45055" stroke-linecap="round" stroke-linejoin="round"/>
<path d="M324.26 216.77L216.6 108.4" stroke="#F5E1C8" stroke-width="1.45055" stroke-linecap="round" stroke-linejoin="round"/>
<path d="M324.26 216.77L216.6 108.4" stroke="#F5E1C8" stroke-width="1.45055" stroke-linecap="round" stroke-linejoin="round"/>
<path d="M216.6 216.77L324.26 108.4" stroke="#F5E1C8" stroke-width="1.45055" stroke-linecap="round" stroke-linejoin="round"/>
<path d="M270.589 270.673H238.648L216.672 292.591" stroke="#F5E1C8" stroke-width="1.45055" stroke-linecap="round" stroke-linejoin="round"/>
<path d="M238.648 270.673L216.672 248.857" stroke="#F5E1C8" stroke-width="1.45055" stroke-linecap="round" stroke-linejoin="round"/>
<path d="M270.43 270.673H302.356L324.332 292.591" stroke="#F5E1C8" stroke-width="1.45055" stroke-linecap="round" stroke-linejoin="round"/>
<path d="M302.356 270.673L324.332 248.857" stroke="#F5E1C8" stroke-width="1.45055" stroke-linecap="round" stroke-linejoin="round"/>
<path d="M270.546 270.789V239.109L248.468 217.307" stroke="#F5E1C8" stroke-width="1.45055" stroke-linecap="round" stroke-linejoin="round"/>
<path d="M270.546 239.109L292.551 217.307" stroke="#F5E1C8" stroke-width="1.45055" stroke-linecap="round" stroke-linejoin="round"/>
<path d="M270.546 270.644V302.324L248.468 324.126" stroke="#F5E1C8" stroke-width="1.45055" stroke-linecap="round" stroke-linejoin="round"/>
<path d="M270.546 302.324L292.551 324.126" stroke="#F5E1C8" stroke-width="1.45055" stroke-linecap="round" stroke-linejoin="round"/>
<path d="M270.589 270.745L248.004 248.334L216.861 248.407" stroke="#F5E1C8" stroke-width="1.45055" stroke-linecap="round" stroke-linejoin="round"/>
<path d="M248.004 248.334L248.033 217.481" stroke="#F5E1C8" stroke-width="1.45055" stroke-linecap="round" stroke-linejoin="round"/>
<path d="M270.473 270.629L293.058 293.04L292.986 323.952" stroke="#F5E1C8" stroke-width="1.45055" stroke-linecap="round" stroke-linejoin="round"/>
<path d="M293.058 293.04L324.158 293.026" stroke="#F5E1C8" stroke-width="1.45055" stroke-linecap="round" stroke-linejoin="round"/>
<path d="M270.473 270.803L293.058 248.392L292.986 217.481" stroke="#F5E1C8" stroke-width="1.45055" stroke-linecap="round" stroke-linejoin="round"/>
<path d="M293.058 248.392L324.158 248.407" stroke="#F5E1C8" stroke-width="1.45055" stroke-linecap="round" stroke-linejoin="round"/>
<path d="M270.589 270.687L248.004 293.098L216.861 293.026" stroke="#F5E1C8" stroke-width="1.45055" stroke-linecap="round" stroke-linejoin="round"/>
<path d="M248.004 293.098L248.033 323.951" stroke="#F5E1C8" stroke-width="1.45055" stroke-linecap="round" stroke-linejoin="round"/>
<path d="M324.26 216.959H216.6V324.459H324.26V216.959Z" stroke="#F5E1C8" stroke-width="1.45055" stroke-linecap="round" stroke-linejoin="round"/>
<path d="M324.332 0.768799H216.6V108.226H324.332V0.768799Z" stroke="#F5E1C8" stroke-width="1.45055" stroke-linecap="round" stroke-linejoin="round"/>
<path d="M270.473 54.4973C275.739 59.6903 283.02 62.8525 291.085 62.7799C298.962 62.7074 306.157 59.5452 311.495 54.4538C300.296 43.299 282.049 43.3571 270.473 54.4973Z" stroke="#F5E1C8" stroke-width="1.45055" stroke-linecap="round" stroke-linejoin="round"/>
<path d="M229.437 54.5407C234.703 59.7337 241.984 62.8959 250.049 62.8234C257.926 62.7509 265.121 59.5742 270.459 54.4972C259.26 43.3425 241.012 43.4005 229.437 54.5407Z" stroke="#F5E1C8" stroke-width="1.45055" stroke-linecap="round" stroke-linejoin="round"/>
<path d="M270.473 54.4972C265.266 49.2462 262.089 41.9789 262.176 33.9284C262.249 26.0664 265.425 18.9007 270.517 13.5771C281.7 24.7464 281.642 42.9508 270.473 54.4972Z" stroke="#F5E1C8" stroke-width="1.45055" stroke-linecap="round" stroke-linejoin="round"/>
<path d="M270.415 95.4172C265.208 90.1662 262.031 82.899 262.118 74.8484C262.19 66.9864 265.367 59.8207 270.459 54.4972C281.642 65.6664 281.584 83.8708 270.415 95.4172Z" stroke="#F5E1C8" stroke-width="1.45055" stroke-linecap="round" stroke-linejoin="round"/>
<path d="M292.289 62.7363V76.27H278.872" stroke="#F5E1C8" stroke-width="1.45055" stroke-linecap="round" stroke-linejoin="round"/>
<path d="M248.759 62.7363V76.27H262.162" stroke="#F5E1C8" stroke-width="1.45055" stroke-linecap="round" stroke-linejoin="round"/>
<path d="M248.759 46.113V32.5939H262.162" stroke="#F5E1C8" stroke-width="1.45055" stroke-linecap="round" stroke-linejoin="round"/>
<path d="M292.289 46.113V32.5939H278.872" stroke="#F5E1C8" stroke-width="1.45055" stroke-linecap="round" stroke-linejoin="round"/>
<path d="M324.216 108.197C324.129 94.5324 318.762 80.9117 308.115 70.4823C297.7 60.2994 284.166 55.0774 270.517 54.7583C270.531 83.9579 294.48 107.674 324.216 108.197Z" stroke="#F5E1C8" stroke-width="1.45055" stroke-linecap="round" stroke-linejoin="round"/>
<path d="M216.745 108.197C216.832 94.5324 222.199 80.9117 232.846 70.4823C243.261 60.2994 256.794 55.0774 270.444 54.7583C270.43 83.9579 246.481 107.674 216.745 108.197Z" stroke="#F5E1C8" stroke-width="1.45055" stroke-linecap="round" stroke-linejoin="round"/>
<path d="M324.216 1.31995C324.129 14.9841 318.762 28.6193 308.115 39.0343C297.7 49.2171 284.166 54.4391 270.517 54.7582C270.531 25.5587 294.48 1.84214 324.216 1.31995Z" stroke="#F5E1C8" stroke-width="1.45055" stroke-linecap="round" stroke-linejoin="round"/>
<path d="M216.745 1.31995C216.832 14.9841 222.199 28.6193 232.846 39.0343C243.261 49.2171 256.794 54.4391 270.444 54.7582C270.43 25.5587 246.481 1.84214 216.745 1.31995Z" stroke="#F5E1C8" stroke-width="1.45055" stroke-linecap="round" stroke-linejoin="round"/>
</g>
<defs>
<clipPath id="clip0_46_1799">
<rect width="324.445" height="325.17" fill="white" transform="translate(0.612671)"/>
</clipPath>
</defs>
</svg>
