<?xml version="1.0" encoding="utf-8"?>
<!-- Generator: Adobe Illustrator 27.2.0, SVG Export Plug-In . SVG Version: 6.00 Build 0)  -->
<svg version="1.1" id="Layer_1" xmlns="http://www.w3.org/2000/svg" xmlns:xlink="http://www.w3.org/1999/xlink" x="0px" y="0px"
	 viewBox="0 0 215.8 217.8" style="enable-background:new 0 0 215.8 217.8;" xml:space="preserve">
<style type="text/css">
	.st0{fill:none;stroke:#F5E1C8;stroke-width:1.4505;stroke-linecap:round;stroke-linejoin:round;}
</style>
<path class="st0" d="M107.6,0.8H0.7v108.4h106.8V0.8z"/>
<path class="st0" d="M54.1,54.6c-5-4.9-11.8-7.9-19.4-7.8c-0.1,0-0.1,0-0.2,0C24.4,47,24.5,62.5,34.6,62.6
	C41.6,62.6,48.7,59.9,54.1,54.6L54.1,54.6z"/>
<path class="st0" d="M74.6,62.5c10-0.5,9.6-15.5-0.5-15.7c-0.3,0-0.5,0-0.8,0c-7.4,0.1-14.2,3.1-19.2,7.9
	C59.7,60.3,67.2,62.9,74.6,62.5z"/>
<path class="st0" d="M54.1,54.6c4.9,5,7.9,11.8,7.8,19.5c0,0.1,0,0.1,0,0.2c-0.2,10.2-15.7,10.1-15.7-0.1
	C46.2,67.2,48.9,60.1,54.1,54.6z"/>
<path class="st0" d="M46.3,34.1c0.5-10,15.5-9.6,15.7,0.5c0,0.3,0,0.5,0,0.8c-0.1,7.4-3.1,14.2-7.8,19.2C48.6,49,46,41.5,46.3,34.1z
	"/>
<path class="st0" d="M54.4,54.8c-7,0-13.9,2.8-19.2,8.2c-0.1,0.1-0.1,0.1-0.2,0.2c-7.1,7.4,4,18.3,11.2,11.1
	C51.2,69.2,54.3,62.4,54.4,54.8z"/>
<path class="st0" d="M74.4,45.8C81.2,38.4,70.2,28.1,63,35c-0.2,0.2-0.4,0.4-0.6,0.6c-5.2,5.3-7.9,12.2-8,19.2
	C62.3,54.8,69.4,51.3,74.4,45.8L74.4,45.8z"/>
<path class="st0" d="M54.4,54.8c7,0,13.9,2.8,19.2,8.2c0.1,0.1,0.1,0.1,0.2,0.2c7.1,7.4-4,18.3-11.2,11.1
	C57.7,69.2,54.6,62.4,54.4,54.8z"/>
<path class="st0" d="M34.4,45.8c-6.7-7.4,4.2-17.8,11.4-10.8c0.2,0.2,0.4,0.4,0.6,0.6c5.2,5.3,7.9,12.2,8,19.2
	C46.5,54.8,39.4,51.3,34.4,45.8L34.4,45.8z"/>
<path class="st0" d="M96,54.8c0-23-18.6-41.7-41.6-41.7c-23,0-41.6,18.7-41.6,41.7c0,23,18.6,41.7,41.6,41.7
	C77.4,96.5,96,77.8,96,54.8z"/>
<path class="st0" d="M108.2,0.8L83.8,25.3"/>
<path class="st0" d="M25,84.2L0.6,108.7"/>
<path class="st0" d="M0.6,0.8L25,25.3"/>
<path class="st0" d="M83.8,84.2l24.4,24.5"/>
<g>
	<path class="st0" d="M107.4,109.2H0.7v107.9h106.7V109.2z"/>
	<path class="st0" d="M107.4,163.1c0-11-8.8-20-19.7-20.1v-11.7c0-1.4-1.1-2.5-2.4-2.5H73.9c-0.2-10.9-9-19.7-19.9-19.7
		s-19.7,8.8-19.9,19.7H22.8c-1.3,0-2.4,1.1-2.4,2.5V143c-10.9,0.1-19.7,9.1-19.7,20.1c0,11,8.8,20,19.7,20.1v11.3
		c0,1.4,1.1,2.5,2.4,2.5h11.4c0,11.1,8.9,20.1,19.9,20.1c11,0,19.9-9,19.9-20.1h11.4c1.3,0,2.4-1.1,2.4-2.5v-11.3
		C98.6,183.1,107.4,174.1,107.4,163.1z"/>
</g>
<path class="st0" d="M138.9,162.9l22.3,22.4l22.3-22.4l-22.3-22.4L138.9,162.9z"/>
<path class="st0" d="M188.7,135.2h-54.9v55.3h54.9V135.2z"/>
<path class="st0" d="M215.1,109.2H107.4V217h107.7V109.2z"/>
<path class="st0" d="M215.1,217.1L107.4,108.7"/>
<path class="st0" d="M215.1,217.1L107.4,108.7"/>
<path class="st0" d="M107.4,217.1l107.7-108.4"/>
<path class="st0" d="M215.2,0.8H107.4v108.4h107.7V0.8z"/>
<path class="st0" d="M161.3,54.5c5.3,5.2,12.5,8.4,20.6,8.3c7.9-0.1,15.1-3.2,20.4-8.3C191.1,43.3,172.9,43.4,161.3,54.5z"/>
<path class="st0" d="M120.3,54.5c5.3,5.2,12.5,8.4,20.6,8.3c7.9-0.1,15.1-3.2,20.4-8.3C150.1,43.3,131.8,43.4,120.3,54.5z"/>
<path class="st0" d="M161.3,54.5c-5.2-5.3-8.4-12.5-8.3-20.6c0.1-7.9,3.2-15,8.3-20.4C172.5,24.7,172.5,43,161.3,54.5z"/>
<path class="st0" d="M161.2,95.4c-5.2-5.3-8.4-12.5-8.3-20.6c0.1-7.9,3.2-15,8.3-20.4C172.5,65.7,172.4,83.9,161.2,95.4z"/>
<path class="st0" d="M183.1,62.7v13.5h-13.4"/>
<path class="st0" d="M139.6,62.7v13.5H153"/>
<path class="st0" d="M139.6,46.1V32.6H153"/>
<path class="st0" d="M183.1,46.1V32.6h-13.4"/>
<path class="st0" d="M215,108.2c-0.1-13.7-5.5-27.3-16.1-37.7c-10.4-10.2-23.9-15.4-37.6-15.7C161.4,84,185.3,107.7,215,108.2z"/>
<path class="st0" d="M107.6,108.2c0.1-13.7,5.5-27.3,16.1-37.7c10.4-10.2,23.9-15.4,37.6-15.7C161.3,84,137.3,107.7,107.6,108.2z"/>
<path class="st0" d="M215,1.3C215,15,209.6,28.6,198.9,39c-10.4,10.2-23.9,15.4-37.6,15.7C161.4,25.6,185.3,1.8,215,1.3z"/>
<path class="st0" d="M107.6,1.3C107.7,15,113,28.6,123.7,39c10.4,10.2,23.9,15.4,37.6,15.7C161.3,25.6,137.3,1.8,107.6,1.3z"/>
</svg>
