<svg width="171" height="58" viewBox="0 0 171 58" fill="none" xmlns="http://www.w3.org/2000/svg">
<g clip-path="url(#clip0_167_5540)">
<path d="M56.9899 0.347656H0.342773V57.6542H56.9899V0.347656Z" stroke="#FFEBD7" stroke-width="0.308511" stroke-linecap="round" stroke-linejoin="round"/>
<path d="M56.9898 29.0009C56.9898 23.1482 52.3286 18.3912 46.5433 18.3218V12.1085C46.5433 11.3873 45.9675 10.8049 45.2546 10.8049H39.2225C39.1128 5.00763 34.4242 0.347656 28.68 0.347656C22.9357 0.347656 18.2471 5.00763 18.1375 10.8049H12.1053C11.3925 10.8049 10.8167 11.3873 10.8167 12.1085V18.3218C5.0313 18.3773 0.370117 23.1344 0.370117 29.0009C0.370117 34.8675 5.0313 39.6107 10.8167 39.68V45.6714C10.8167 46.3926 11.3925 46.9751 12.1053 46.9751H18.1375C18.1375 52.8694 22.8672 57.6542 28.6937 57.6542C34.5202 57.6542 39.2499 52.8694 39.2499 46.9751H45.282C45.9949 46.9751 46.5707 46.3926 46.5707 45.6714V39.68C52.3561 39.6246 57.0172 34.8675 57.0172 29.0009H56.9898Z" stroke="#FFEBD7" stroke-width="0.308511" stroke-linecap="round" stroke-linejoin="round"/>
<path d="M169.955 0.347656H113.212V57.6542H169.955V0.347656Z" stroke="#FFEBD7" stroke-width="0.308511" stroke-linecap="round" stroke-linejoin="round"/>
<path d="M141.563 28.8184C137.93 28.8461 134.311 30.2746 131.541 33.1039C128.841 35.8777 127.442 39.4697 127.36 43.1034C135.12 43.1034 141.412 36.7375 141.563 28.8184Z" stroke="#FFEBD7" stroke-width="0.308511" stroke-linecap="round" stroke-linejoin="round"/>
<path d="M155.766 14.5469C152.133 14.5746 148.514 16.0031 145.744 18.8324C143.044 21.5923 141.645 25.1982 141.563 28.8319C149.322 28.8319 155.615 22.4661 155.752 14.5607L155.766 14.5469Z" stroke="#FFEBD7" stroke-width="0.308511" stroke-linecap="round" stroke-linejoin="round"/>
<path d="M141.563 28.8184C145.196 28.8461 148.815 30.2746 151.585 33.1039C154.285 35.8777 155.684 39.4697 155.766 43.1034C148.006 43.1034 141.714 36.7375 141.577 28.8184H141.563Z" stroke="#FFEBD7" stroke-width="0.308511" stroke-linecap="round" stroke-linejoin="round"/>
<path d="M127.374 14.5469C131.007 14.5746 134.626 16.0031 137.395 18.8324C140.096 21.5923 141.494 25.1982 141.577 28.8319C133.817 28.8319 127.525 22.4661 127.387 14.5607L127.374 14.5469Z" stroke="#FFEBD7" stroke-width="0.308511" stroke-linecap="round" stroke-linejoin="round"/>
<path d="M141.618 0.347656L169.941 28.7652L141.618 57.1827L113.294 28.7652L141.618 0.347656Z" stroke="#FFEBD7" stroke-width="0.308511" stroke-linecap="round" stroke-linejoin="round"/>
<path d="M113.212 0.347656L127.36 14.5495" stroke="#FFEBD7" stroke-width="0.308511" stroke-linecap="round" stroke-linejoin="round"/>
<path d="M155.766 43.1055L169.914 57.3073" stroke="#FFEBD7" stroke-width="0.308511" stroke-linecap="round" stroke-linejoin="round"/>
<path d="M113.185 57.278L127.346 43.0762" stroke="#FFEBD7" stroke-width="0.308511" stroke-linecap="round" stroke-linejoin="round"/>
<path d="M155.78 14.5768L169.941 0.375" stroke="#FFEBD7" stroke-width="0.308511" stroke-linecap="round" stroke-linejoin="round"/>
<path d="M85.094 29.0136H101.792L113.28 17.3359" stroke="#FFEBD7" stroke-width="0.308511" stroke-linecap="round" stroke-linejoin="round"/>
<path d="M101.792 29.0137L113.28 40.6497" stroke="#FFEBD7" stroke-width="0.308511" stroke-linecap="round" stroke-linejoin="round"/>
<path d="M85.1762 29.0136H68.4782L56.9897 17.3359" stroke="#FFEBD7" stroke-width="0.308511" stroke-linecap="round" stroke-linejoin="round"/>
<path d="M68.4782 29.0137L56.9897 40.6497" stroke="#FFEBD7" stroke-width="0.308511" stroke-linecap="round" stroke-linejoin="round"/>
<path d="M85.1216 28.9453V45.8377L96.6649 57.4599" stroke="#FFEBD7" stroke-width="0.308511" stroke-linecap="round" stroke-linejoin="round"/>
<path d="M85.1216 45.8379L73.6057 57.4601" stroke="#FFEBD7" stroke-width="0.308511" stroke-linecap="round" stroke-linejoin="round"/>
<path d="M85.1216 29.0283V12.1359L96.6649 0.513672" stroke="#FFEBD7" stroke-width="0.308511" stroke-linecap="round" stroke-linejoin="round"/>
<path d="M85.1216 12.1359L73.6057 0.513672" stroke="#FFEBD7" stroke-width="0.308511" stroke-linecap="round" stroke-linejoin="round"/>
<path d="M85.094 28.9727L96.8978 40.9277L113.185 40.8861" stroke="#FFEBD7" stroke-width="0.308511" stroke-linecap="round" stroke-linejoin="round"/>
<path d="M96.8976 40.9141L96.884 57.3627" stroke="#FFEBD7" stroke-width="0.308511" stroke-linecap="round" stroke-linejoin="round"/>
<path d="M85.1487 29.0269L73.345 17.0857L73.3861 0.609375" stroke="#FFEBD7" stroke-width="0.308511" stroke-linecap="round" stroke-linejoin="round"/>
<path d="M73.345 17.0859L57.0857 17.0998" stroke="#FFEBD7" stroke-width="0.308511" stroke-linecap="round" stroke-linejoin="round"/>
<path d="M85.1487 28.9453L73.345 40.8865L73.3861 57.3628" stroke="#FFEBD7" stroke-width="0.308511" stroke-linecap="round" stroke-linejoin="round"/>
<path d="M73.345 40.8867H57.0857" stroke="#FFEBD7" stroke-width="0.308511" stroke-linecap="round" stroke-linejoin="round"/>
<path d="M85.094 28.9998L96.8978 17.0586L113.185 17.1002" stroke="#FFEBD7" stroke-width="0.308511" stroke-linecap="round" stroke-linejoin="round"/>
<path d="M96.8976 17.058L96.884 0.609375" stroke="#FFEBD7" stroke-width="0.308511" stroke-linecap="round" stroke-linejoin="round"/>
<path d="M113.321 0.347656H57.0308V57.6542H113.321V0.347656Z" stroke="#FFEBD7" stroke-width="0.308511" stroke-linecap="round" stroke-linejoin="round"/>
</g>
<defs>
<clipPath id="clip0_167_5540">
<rect width="170.298" height="58" fill="white"/>
</clipPath>
</defs>
</svg>
