<svg width="844" height="96" viewBox="0 0 844 96" fill="none" xmlns="http://www.w3.org/2000/svg">
<g clip-path="url(#clip0_46_1465)">
<path d="M443.969 26.4551H400.455V70.1963H443.969V26.4551Z" stroke="#F5E1C8" stroke-linecap="round" stroke-linejoin="round"/>
<path d="M422.202 4.58619L378.682 48.3323L422.202 92.0785L465.722 48.3323L422.202 4.58619Z" stroke="#F5E1C8" stroke-linecap="round" stroke-linejoin="round"/>
<path d="M422.212 1.30273V95.3737" stroke="#F5E1C8" stroke-linecap="round" stroke-linejoin="round"/>
<path d="M375.42 48.3382H469.004" stroke="#F5E1C8" stroke-linecap="round" stroke-linejoin="round"/>
<path d="M400.458 37.4278L389.603 48.34L400.458 59.2521L411.314 48.34L400.458 37.4278Z" stroke="#F5E1C8" stroke-linecap="round" stroke-linejoin="round"/>
<path d="M443.976 37.4251L433.12 48.3373L443.976 59.2495L454.831 48.3373L443.976 37.4251Z" stroke="#F5E1C8" stroke-linecap="round" stroke-linejoin="round"/>
<path d="M422.206 59.2984L411.35 70.2106L422.206 81.1227L433.062 70.2106L422.206 59.2984Z" stroke="#F5E1C8" stroke-linecap="round" stroke-linejoin="round"/>
<path d="M422.207 15.5456L411.351 26.4578L422.207 37.37L433.063 26.4578L422.207 15.5456Z" stroke="#F5E1C8" stroke-linecap="round" stroke-linejoin="round"/>
<path d="M468.966 0.626282H375.382V95.3737H468.966V0.626282Z" stroke="#F5E1C8" stroke-linecap="round" stroke-linejoin="round"/>
<path d="M468.966 1.30273L375.382 95.3737" stroke="#F5E1C8" stroke-linecap="round" stroke-linejoin="round"/>
<path d="M375.382 1.30273L468.966 95.3737" stroke="#F5E1C8" stroke-linecap="round" stroke-linejoin="round"/>
<path d="M94.8051 0.701477H0.623047V95.3737H94.8051V0.701477Z" stroke="#F5E1C8" stroke-linecap="round" stroke-linejoin="round"/>
<path d="M94.8051 48.0376C94.8051 38.3549 87.0417 30.501 77.4341 30.4008V20.142C77.4341 18.952 76.4746 17.9875 75.2908 17.9875H65.2595C65.0726 8.41754 57.2968 0.713989 47.7265 0.713989C38.1563 0.713989 30.3805 8.41754 30.1936 17.9875H20.1623C18.9784 17.9875 18.0189 18.952 18.0189 20.142V30.4008C8.4113 30.501 0.647949 38.3549 0.647949 48.0376C0.647949 57.7203 8.4113 65.5741 18.0189 65.6743V75.5825C18.0189 76.7724 18.9784 77.737 20.1623 77.737H30.1936C30.1936 87.4823 38.0441 95.3737 47.739 95.3737C57.4338 95.3737 65.2844 87.4823 65.2844 77.737H75.3157C76.4995 77.737 77.459 76.7724 77.459 75.5825V65.6743C87.0667 65.5741 94.83 57.7203 94.83 48.0376H94.8051Z" stroke="#F5E1C8" stroke-linecap="round" stroke-linejoin="round"/>
<path d="M281.848 0.701477H188.264V95.3737H281.848V0.701477Z" stroke="#F5E1C8" stroke-linecap="round" stroke-linejoin="round"/>
<path d="M235.031 47.7369C229.05 47.7745 223.069 50.1294 218.508 54.8142C214.047 59.3862 211.754 65.3361 211.617 71.3236C224.415 71.3236 234.795 60.8017 235.031 47.7369Z" stroke="#F5E1C8" stroke-linecap="round" stroke-linejoin="round"/>
<path d="M258.446 24.1503C252.465 24.1879 246.483 26.5428 241.923 31.2276C237.461 35.7996 235.169 41.7495 235.031 47.737C247.829 47.737 258.209 37.215 258.446 24.1503Z" stroke="#F5E1C8" stroke-linecap="round" stroke-linejoin="round"/>
<path d="M235.031 47.7369C241.013 47.7745 246.982 50.1294 251.555 54.8142C256.016 59.3862 258.309 65.3361 258.446 71.3236C245.648 71.3236 235.268 60.8017 235.031 47.7369Z" stroke="#F5E1C8" stroke-linecap="round" stroke-linejoin="round"/>
<path d="M211.629 24.1503C217.611 24.1879 223.58 26.5428 228.153 31.2276C232.614 35.7996 234.907 41.7495 235.044 47.737C222.246 47.737 211.866 37.215 211.629 24.1503Z" stroke="#F5E1C8" stroke-linecap="round" stroke-linejoin="round"/>
<path d="M235.113 0.707438L188.412 47.6511L235.113 94.5947L281.813 47.6511L235.113 0.707438Z" stroke="#F5E1C8" stroke-linecap="round" stroke-linejoin="round"/>
<path d="M188.264 0.701477L211.617 24.1754" stroke="#F5E1C8" stroke-linecap="round" stroke-linejoin="round"/>
<path d="M258.446 71.3236L281.786 94.7975" stroke="#F5E1C8" stroke-linecap="round" stroke-linejoin="round"/>
<path d="M188.227 94.7599L211.579 71.286" stroke="#F5E1C8" stroke-linecap="round" stroke-linejoin="round"/>
<path d="M258.484 24.2129L281.836 0.739014" stroke="#F5E1C8" stroke-linecap="round" stroke-linejoin="round"/>
<path d="M562.501 0.626282H468.966V95.3737H562.501V0.626282Z" stroke="#F5E1C8" stroke-linecap="round" stroke-linejoin="round"/>
<path d="M562.501 46.7724C562.039 21.2192 541.304 0.651334 515.758 0.626282C516.033 12.3507 520.618 23.9875 529.516 32.9311C538.637 42.0877 550.55 46.6973 562.501 46.7724Z" stroke="#F5E1C8" stroke-linecap="round" stroke-linejoin="round"/>
<path d="M562.501 48.501C550.55 48.5762 538.637 53.1858 529.516 62.3424C520.618 71.286 516.033 82.9227 515.758 94.6472C541.304 94.6346 562.039 74.0543 562.501 48.501Z" stroke="#F5E1C8" stroke-linecap="round" stroke-linejoin="round"/>
<path d="M515.709 0.626282C490.163 0.638808 469.427 21.2192 468.966 46.7724C480.917 46.6973 492.83 42.0877 501.951 32.9311C510.849 23.9875 515.434 12.3507 515.709 0.626282Z" stroke="#F5E1C8" stroke-linecap="round" stroke-linejoin="round"/>
<path d="M468.966 48.501C469.427 74.0543 490.163 94.6346 515.709 94.6472C515.434 82.9227 510.861 71.286 501.951 62.3424C492.83 53.1858 480.917 48.5762 468.966 48.501Z" stroke="#F5E1C8" stroke-linecap="round" stroke-linejoin="round"/>
<path d="M141.522 48.0626H169.286L188.389 28.7599" stroke="#F5E1C8" stroke-linecap="round" stroke-linejoin="round"/>
<path d="M169.286 48.0626L188.389 67.2777" stroke="#F5E1C8" stroke-linecap="round" stroke-linejoin="round"/>
<path d="M141.659 48.0626H113.896L94.8052 28.7599" stroke="#F5E1C8" stroke-linecap="round" stroke-linejoin="round"/>
<path d="M113.896 48.0626L94.8052 67.2777" stroke="#F5E1C8" stroke-linecap="round" stroke-linejoin="round"/>
<path d="M141.56 47.9499V75.858L160.75 95.0605" stroke="#F5E1C8" stroke-linecap="round" stroke-linejoin="round"/>
<path d="M141.56 75.858L122.432 95.0605" stroke="#F5E1C8" stroke-linecap="round" stroke-linejoin="round"/>
<path d="M141.56 48.0877V20.1795L160.75 0.989563" stroke="#F5E1C8" stroke-linecap="round" stroke-linejoin="round"/>
<path d="M141.56 20.1795L122.432 0.989563" stroke="#F5E1C8" stroke-linecap="round" stroke-linejoin="round"/>
<path d="M141.522 48L161.149 67.7286L188.227 67.666" stroke="#F5E1C8" stroke-linecap="round" stroke-linejoin="round"/>
<path d="M161.149 67.7286L161.136 94.8977" stroke="#F5E1C8" stroke-linecap="round" stroke-linejoin="round"/>
<path d="M141.622 48.1002L121.983 28.3591L122.058 1.13989" stroke="#F5E1C8" stroke-linecap="round" stroke-linejoin="round"/>
<path d="M121.983 28.3591L94.9547 28.3841" stroke="#F5E1C8" stroke-linecap="round" stroke-linejoin="round"/>
<path d="M141.622 47.9499L121.983 67.6785L122.058 94.8977" stroke="#F5E1C8" stroke-linecap="round" stroke-linejoin="round"/>
<path d="M121.983 67.6785L94.9547 67.666" stroke="#F5E1C8" stroke-linecap="round" stroke-linejoin="round"/>
<path d="M141.522 48.0501L161.149 28.309L188.227 28.3841" stroke="#F5E1C8" stroke-linecap="round" stroke-linejoin="round"/>
<path d="M161.149 28.309L161.136 1.13989" stroke="#F5E1C8" stroke-linecap="round" stroke-linejoin="round"/>
<path d="M188.451 0.701477H94.8674V95.3737H188.451V0.701477Z" stroke="#F5E1C8" stroke-linecap="round" stroke-linejoin="round"/>
<path d="M375.395 94.6847L328.603 47.6242L281.811 94.6847" stroke="#F5E1C8" stroke-linecap="round" stroke-linejoin="round"/>
<path d="M375.395 0.626282L328.603 47.6743L281.811 0.626282" stroke="#F5E1C8" stroke-linecap="round" stroke-linejoin="round"/>
<path d="M361.501 0.626282L328.603 33.7077L295.705 0.626282" stroke="#F5E1C8" stroke-linecap="round" stroke-linejoin="round"/>
<path d="M345.052 0.626282L328.603 17.1607L312.154 0.626282" stroke="#F5E1C8" stroke-linecap="round" stroke-linejoin="round"/>
<path d="M295.705 94.6847L328.603 61.6033L361.501 94.6847" stroke="#F5E1C8" stroke-linecap="round" stroke-linejoin="round"/>
<path d="M312.154 94.6848L328.603 78.1378L345.052 94.6848" stroke="#F5E1C8" stroke-linecap="round" stroke-linejoin="round"/>
<path d="M281.811 14.5804L314.721 47.6493L281.811 80.7182" stroke="#F5E1C8" stroke-linecap="round" stroke-linejoin="round"/>
<path d="M281.811 31.1148L298.272 47.6493L281.811 64.1837" stroke="#F5E1C8" stroke-linecap="round" stroke-linejoin="round"/>
<path d="M375.382 80.7182L342.472 47.6493L375.382 14.5804" stroke="#F5E1C8" stroke-linecap="round" stroke-linejoin="round"/>
<path d="M375.382 64.1837L358.934 47.6493L375.382 31.1148" stroke="#F5E1C8" stroke-linecap="round" stroke-linejoin="round"/>
<path d="M375.383 0.701477H281.799V95.3737H375.383V0.701477Z" stroke="#F5E1C8" stroke-linecap="round" stroke-linejoin="round"/>
<path d="M656.209 0.701477H562.625V95.3737H656.209V0.701477Z" stroke="#F5E1C8" stroke-linecap="round" stroke-linejoin="round"/>
<path d="M609.392 47.7369C603.411 47.7745 597.429 50.1294 592.869 54.8142C588.407 59.3862 586.115 65.3361 585.978 71.3236C598.775 71.3236 609.155 60.8017 609.392 47.7369Z" stroke="#F5E1C8" stroke-linecap="round" stroke-linejoin="round"/>
<path d="M632.807 24.1503C626.825 24.1879 620.844 26.5428 616.283 31.2276C611.822 35.7996 609.529 41.7495 609.392 47.737C622.19 47.737 632.57 37.215 632.807 24.1503Z" stroke="#F5E1C8" stroke-linecap="round" stroke-linejoin="round"/>
<path d="M609.392 47.7369C615.373 47.7745 621.342 50.1294 625.916 54.8142C630.377 59.3862 632.67 65.3361 632.807 71.3236C620.009 71.3236 609.629 60.8017 609.392 47.7369Z" stroke="#F5E1C8" stroke-linecap="round" stroke-linejoin="round"/>
<path d="M585.978 24.1503C591.959 24.1879 597.928 26.5428 602.501 31.2276C606.962 35.7996 609.255 41.7495 609.392 47.737C596.595 47.737 586.214 37.215 585.978 24.1503Z" stroke="#F5E1C8" stroke-linecap="round" stroke-linejoin="round"/>
<path d="M609.464 0.70497L562.763 47.6486L609.464 94.5922L656.164 47.6486L609.464 0.70497Z" stroke="#F5E1C8" stroke-linecap="round" stroke-linejoin="round"/>
<path d="M562.625 0.701477L585.965 24.1754" stroke="#F5E1C8" stroke-linecap="round" stroke-linejoin="round"/>
<path d="M632.807 71.3236L656.147 94.7975" stroke="#F5E1C8" stroke-linecap="round" stroke-linejoin="round"/>
<path d="M562.588 94.7599L585.928 71.286" stroke="#F5E1C8" stroke-linecap="round" stroke-linejoin="round"/>
<path d="M632.844 24.2129L656.184 0.739014" stroke="#F5E1C8" stroke-linecap="round" stroke-linejoin="round"/>
<path d="M749.731 0.739014H656.147V95.0856H749.731V0.739014Z" stroke="#F5E1C8" stroke-linecap="round" stroke-linejoin="round"/>
<path d="M702.714 47.8247C698.403 43.5407 692.459 40.9228 685.854 40.9854C685.792 40.9854 685.73 40.9854 685.655 40.9854C676.808 41.1483 676.895 54.7391 685.742 54.7516C691.823 54.7516 697.954 52.4468 702.702 47.8247H702.714Z" stroke="#F5E1C8" stroke-linecap="round" stroke-linejoin="round"/>
<path d="M720.497 54.6889C729.195 54.2631 728.808 41.1232 720.085 40.9478C719.849 40.9478 719.612 40.9478 719.388 40.9478C712.945 41.0104 707.063 43.6284 702.702 47.8246C707.562 52.7223 714.054 55.0021 720.497 54.6889Z" stroke="#F5E1C8" stroke-linecap="round" stroke-linejoin="round"/>
<path d="M702.714 47.8246C706.964 52.1712 709.568 58.1712 709.493 64.8226C709.493 64.8852 709.493 64.9478 709.493 65.023C709.331 73.9416 695.848 73.8539 695.836 64.9353C695.836 58.7975 698.129 52.6221 702.714 47.8372V47.8246Z" stroke="#F5E1C8" stroke-linecap="round" stroke-linejoin="round"/>
<path d="M695.898 29.8873C696.322 21.119 709.356 21.5198 709.531 30.3006C709.531 30.5386 709.531 30.7766 709.531 31.0146C709.468 37.5157 706.876 43.4405 702.702 47.8372C697.842 42.9269 695.574 36.3883 695.898 29.8998V29.8873Z" stroke="#F5E1C8" stroke-linecap="round" stroke-linejoin="round"/>
<path d="M702.951 47.9249C696.895 47.9624 690.851 50.3549 686.228 55.1023C686.178 55.1524 686.141 55.2025 686.091 55.2401C679.948 61.666 689.543 71.2109 695.811 64.9103C700.122 60.5762 702.827 54.5762 702.951 47.9249Z" stroke="#F5E1C8" stroke-linecap="round" stroke-linejoin="round"/>
<path d="M720.347 40.096C726.204 33.5825 716.696 24.5762 710.428 30.6764C710.253 30.8393 710.092 31.0021 709.93 31.1775C705.419 35.8246 703.101 41.8497 702.951 47.9374C709.83 47.9374 716.023 44.9186 720.347 40.1086V40.096Z" stroke="#F5E1C8" stroke-linecap="round" stroke-linejoin="round"/>
<path d="M702.951 47.9249C709.007 47.9624 715.051 50.3549 719.674 55.1023C719.724 55.1524 719.761 55.2025 719.811 55.2401C725.955 61.666 716.36 71.2109 710.092 64.9103C705.78 60.5762 703.076 54.5762 702.964 47.9249H702.951Z" stroke="#F5E1C8" stroke-linecap="round" stroke-linejoin="round"/>
<path d="M685.555 40.096C679.699 33.5825 689.206 24.5762 695.474 30.6764C695.649 30.8393 695.811 31.0021 695.973 31.1775C700.484 35.8246 702.802 41.8497 702.951 47.9374C696.073 47.9374 689.879 44.9186 685.555 40.1086V40.096Z" stroke="#F5E1C8" stroke-linecap="round" stroke-linejoin="round"/>
<path d="M739.101 47.9249C739.101 27.7954 722.914 11.4865 702.951 11.4865C682.988 11.4865 666.801 27.808 666.801 47.9249C666.801 68.0418 682.988 84.3633 702.951 84.3633C722.914 84.3633 739.101 68.0418 739.101 47.9249Z" stroke="#F5E1C8" stroke-linecap="round" stroke-linejoin="round"/>
<path d="M749.731 0.739014L728.497 22.1586" stroke="#F5E1C8" stroke-linecap="round" stroke-linejoin="round"/>
<path d="M677.406 73.6534L656.172 95.0731" stroke="#F5E1C8" stroke-linecap="round" stroke-linejoin="round"/>
<path d="M656.172 0.739014L677.406 22.1586" stroke="#F5E1C8" stroke-linecap="round" stroke-linejoin="round"/>
<path d="M728.497 73.6534L749.731 95.0731" stroke="#F5E1C8" stroke-linecap="round" stroke-linejoin="round"/>
<path d="M843.377 0.739014H749.718V94.6471H843.377V0.739014Z" stroke="#F5E1C8" stroke-linecap="round" stroke-linejoin="round"/>
<path d="M796.548 47.6994C801.133 52.2338 807.451 55.0021 814.467 54.9395C821.321 54.8768 827.564 52.1086 832.212 47.6618C822.467 37.9165 806.604 37.9666 796.548 47.6994Z" stroke="#F5E1C8" stroke-linecap="round" stroke-linejoin="round"/>
<path d="M760.884 47.7369C765.469 52.2714 771.787 55.0396 778.803 54.977C785.656 54.9144 791.9 52.1461 796.548 47.6994C786.803 37.9415 770.94 38.0042 760.884 47.7369Z" stroke="#F5E1C8" stroke-linecap="round" stroke-linejoin="round"/>
<path d="M796.548 47.6994C792.024 43.1023 789.258 36.7641 789.333 29.7244C789.407 22.8601 792.161 16.5971 796.585 11.9374C806.317 21.7077 806.255 37.6034 796.548 47.6994Z" stroke="#F5E1C8" stroke-linecap="round" stroke-linejoin="round"/>
<path d="M796.51 83.4614C791.987 78.8643 789.22 72.5261 789.295 65.4865C789.357 58.6096 792.124 52.3466 796.548 47.6994C806.267 57.4698 806.218 73.3654 796.51 83.4614Z" stroke="#F5E1C8" stroke-linecap="round" stroke-linejoin="round"/>
<path d="M815.514 54.9019V66.714H803.862" stroke="#F5E1C8" stroke-linecap="round" stroke-linejoin="round"/>
<path d="M777.669 54.9019V66.714H789.333" stroke="#F5E1C8" stroke-linecap="round" stroke-linejoin="round"/>
<path d="M777.669 40.3716V28.547H789.333" stroke="#F5E1C8" stroke-linecap="round" stroke-linejoin="round"/>
<path d="M815.514 40.3716V28.547H803.862" stroke="#F5E1C8" stroke-linecap="round" stroke-linejoin="round"/>
<path d="M843.277 94.6347C843.202 82.6973 838.542 70.785 829.271 61.6785C820.224 52.785 808.448 48.213 796.597 47.9374C796.61 73.453 817.433 94.1837 843.277 94.6347Z" stroke="#F5E1C8" stroke-linecap="round" stroke-linejoin="round"/>
<path d="M749.855 94.6347C749.93 82.6973 754.59 70.785 763.862 61.6785C772.909 52.785 784.684 48.213 796.535 47.9374C796.523 73.453 775.7 94.1837 749.855 94.6347Z" stroke="#F5E1C8" stroke-linecap="round" stroke-linejoin="round"/>
<path d="M843.277 1.21504C843.202 13.1524 838.542 25.0647 829.271 34.1712C820.224 43.0647 808.448 47.6368 796.597 47.9123C796.61 22.3967 817.433 1.66598 843.277 1.20251V1.21504Z" stroke="#F5E1C8" stroke-linecap="round" stroke-linejoin="round"/>
<path d="M749.855 1.21504C749.93 13.1524 754.59 25.0647 763.862 34.1712C772.909 43.0647 784.684 47.6368 796.535 47.9123C796.523 22.3967 775.7 1.66598 749.855 1.20251V1.21504Z" stroke="#F5E1C8" stroke-linecap="round" stroke-linejoin="round"/>
</g>
<defs>
<clipPath id="clip0_46_1465">
<rect width="844" height="96" fill="white"/>
</clipPath>
</defs>
</svg>
